# xmcd
#
# Track frame offsets:
#	150
#	12229
#	25159
#	45727
#	57421
#	68875
#	79799
#	100781
#	117776
#	130765
#	144520
#	156443
#	170993
#	185900
#	199965
#	211114
#	225043
#	241201
#	252802
#	269836
#	284423
#	299925
#	310364
#	323678
#	334988
#	346629
#
# Disc length: 4842 seconds
#
# Revision: 0
# Processed by: cddbd v1.5.2PL0 Copyright (c) Steve Scherf et al.
# Submitted via: audiograbber 1.83.01
#
DISCID=8e12e81a
DTITLE=Various Artist - Longhaired Rednecks CD1
DYEAR=2018
DGENRE=Country
TTITLE0=Doug Sahm and The Sir Douglas Quintet - Mendocino
TTITLE1=Billy Joe Shaver - Chicken On The Ground
TTITLE2=Kris Kristofferson - Sunday Morning Coming Down
TTITLE3=Hoyt Axton - Never Been To Spain
TTITLE4=J.J. Cale - Clyde
TTITLE5=Tom T. Hall - Tulsa Telephone Book
TTITLE6=Doug Sahm and The Sir Douglas Quintet - At The Crossroads
TTITLE7=John Prine - Angel From Montgomery
TTITLE8=Jessi Colter - If She's Where You Like Livin' (You Won't Feel At Home W
TTITLE8=ith Me) 
TTITLE9=Johnny Paycheck - Someone To Give My Love To
TTITLE10=Mickey Newbury - Mobile Blue
TTITLE11=Kris Kristofferson - The Pilgrim Chapter 33
TTITLE12=Kinky Friedman - Sold American
TTITLE13=Doug Kershaw - Super Cowboy
TTITLE14=Stoney Edwards - She's My Rock
TTITLE15=Doug Sahm and The Sir Douglas Quintet - (Is Anybody Going To) San Antone
TTITLE16=Jonathan Edwards - Honky Tonk Stardust Cowboy
TTITLE17=Michael Martin Murphey - What Am I Doin' Hangin' 'Round?
TTITLE18=Townes Van Zandt - If I Needed You
TTITLE19=Kris Kristofferson - Josie
TTITLE20=Steve Young - Seven Bridges Road
TTITLE21=Jessi Colter - I'm Looking For Blue Eyes
TTITLE22=Tanya Tucker - Delta Dawn
TTITLE23=Tompall Glaser - Charlie
TTITLE24=Waylon Jennings - Ladies Love Outlaws
TTITLE25=Townes Van Zandt - Pancho and Lefty
EXTD=
EXTT0=
EXTT1=
EXTT2=
EXTT3=
EXTT4=
EXTT5=
EXTT6=
EXTT7=
EXTT8=
EXTT9=
EXTT10=
EXTT11=
EXTT12=
EXTT13=
EXTT14=
EXTT15=
EXTT16=
EXTT17=
EXTT18=
EXTT19=
EXTT20=
EXTT21=
EXTT22=
EXTT23=
EXTT24=
EXTT25=
PLAYORDER=
